<?xml version="1.0" encoding="UTF-8"?>
<svg width="32px" height="32px" viewBox="0 0 32 32" version="1.1" xmlns="http://www.w3.org/2000/svg" xmlns:xlink="http://www.w3.org/1999/xlink">
    <title>象棋32</title>
    <defs>
        <filter x="-23.2%" y="-23.2%" width="146.4%" height="146.4%" filterUnits="objectBoundingBox" id="filter-1">
            <feOffset dx="0" dy="1" in="SourceAlpha" result="shadowOffsetOuter1"></feOffset>
            <feGaussianBlur stdDeviation="1" in="shadowOffsetOuter1" result="shadowBlurOuter1"></feGaussianBlur>
            <feColorMatrix values="0 0 0 0 0   0 0 0 0 0   0 0 0 0 0  0 0 0 0.3 0" type="matrix" in="shadowBlurOuter1" result="shadowMatrixOuter1"></feColorMatrix>
            <feMerge>
                <feMergeNode in="shadowMatrixOuter1"></feMergeNode>
                <feMergeNode in="SourceGraphic"></feMergeNode>
            </feMerge>
        </filter>
        <linearGradient x1="50%" y1="3.67425276%" x2="50%" y2="99.2713341%" id="linearGradient-2">
            <stop stop-color="#64CEFC" offset="0%"></stop>
            <stop stop-color="#3C90DC" offset="100%"></stop>
        </linearGradient>
        <linearGradient x1="50%" y1="0%" x2="50%" y2="95.5474213%" id="linearGradient-3">
            <stop stop-color="#FFFFFF" stop-opacity="0.701115535" offset="0%"></stop>
            <stop stop-color="#FFFFFF" offset="100%"></stop>
        </linearGradient>
        <linearGradient x1="50%" y1="0%" x2="50%" y2="100%" id="linearGradient-4">
            <stop stop-color="#2FA5ED" offset="0%"></stop>
            <stop stop-color="#3063C9" offset="100%"></stop>
        </linearGradient>
        <linearGradient x1="50%" y1="3.20609566%" x2="50%" y2="100%" id="linearGradient-5">
            <stop stop-color="#3783F8" offset="0%"></stop>
            <stop stop-color="#001673" offset="100%"></stop>
        </linearGradient>
    </defs>
    <g id="象棋32" stroke="none" stroke-width="1" fill="none" fill-rule="evenodd">
        <g id="编组" filter="url(#filter-1)" transform="translate(2.000000, 2.000000)">
            <rect id="矩形" fill="url(#linearGradient-2)" x="0" y="0" width="28" height="28" rx="5.33333333"></rect>
            <path d="M28,17.1666667 L28,17.5 L25.666,17.5 L25.666,22.833 L27.996,22.833 L27.9955514,22.8865063 C27.9917428,22.9804444 27.9855044,23.0737564 27.9768974,23.1663813 L25.666,23.166 L25.6667974,27.0767911 C25.5584435,27.1506452 25.447227,27.2206105 25.3333487,27.2864861 L25.333,23.166 L20,23.166 L20,28 L19.6666667,28 L19.666,23.166 L14.333,23.166 L14.3333333,28 L14,28 L14,23.166 L8.666,23.166 L8.66666667,28 L8.33333333,28 L8.333,23.166 L3,23.166 L3.00021669,27.4639503 C2.88671461,27.4086466 2.77546775,27.3494335 2.66665133,27.2864861 L2.666,23.166 L0.0231025955,23.1663813 C0.0128862079,23.0564368 0.00600702272,22.945524 0.00256731264,22.8337453 L2.666,22.833 L2.666,17.5 L0,17.5 L0,17.1666667 L28,17.1666667 Z M8.333,17.5 L3,17.5 L3,22.833 L8.333,22.833 L8.333,17.5 Z M14,17.5 L8.666,17.5 L8.666,22.833 L14,22.833 L14,17.5 Z M19.666,17.5 L14.333,17.5 L14.333,22.833 L19.666,22.833 L19.666,17.5 Z M25.333,17.5 L20,17.5 L20,22.833 L25.333,22.833 L25.333,17.5 Z M8.66666667,0 L8.666,4.999 L14,4.999 L14,0 L14.3333333,0 L14.333,4.999 L19.666,4.999 L19.6666667,0 L20,0 L20,4.999 L25.333,4.999 L25.3333487,0.713513912 C25.447227,0.77938947 25.5584435,0.849354758 25.6667974,0.923208941 L25.666,4.999 L27.989717,4.99942197 C27.9965387,5.10984998 28,5.22118744 28,5.33333333 L25.666,5.333 L25.6666667,10.6666667 L28,10.6666667 L28,11 L0,11 L0,10.6666667 L2.66666667,10.6666667 L2.666,5.333 L0,5.33333333 C-4.75498784e-17,5.22118744 0.00346133643,5.10984998 0.0102830045,4.99942197 L2.666,4.999 L2.66665133,0.713513912 C2.77546775,0.650566528 2.88671461,0.591353377 3.00021669,0.536049685 L3,4.999 L8.333,4.999 L8.33333333,0 L8.66666667,0 Z M25.333,5.333 L20,5.333 L20,10.6666667 L25.3333333,10.6666667 L25.333,5.333 Z M19.666,5.333 L14.333,5.333 L14.3333333,10.6666667 L19.6666667,10.6666667 L19.666,5.333 Z M14,5.333 L8.666,5.333 L8.66666667,10.6666667 L14,10.6666667 L14,5.333 Z M8.333,5.333 L3,5.333 L3,10.6666667 L8.33333333,10.6666667 L8.333,5.333 Z" id="形状结合" fill-opacity="0.08" fill="#030042"></path>
            <circle id="椭圆形" stroke="url(#linearGradient-4)" fill-opacity="0.85" fill="url(#linearGradient-3)" cx="14" cy="14.3333333" r="10.8333333"></circle>
        </g>
        <path d="M14.6124974,16.5684157 C14.823689,16.6068714 15.1468761,16.574825 15.5820588,16.4722762 C16.081239,16.3697274 16.5452206,16.2383368 16.9740035,16.0781043 C17.4027865,15.9178718 17.8731678,15.696751 18.3851474,15.4147419 C18.8075306,15.1968257 19.2619126,14.9885235 19.7482932,14.7898353 C20.2346739,14.591147 20.6826561,14.4277099 21.0922398,14.2995239 C21.7578134,14.0944264 22.3081915,13.8380544 22.7433742,13.5304081 C22.999364,13.3381291 23.1369585,13.1554641 23.1561578,12.982413 C23.175357,12.809362 23.1145594,12.6138783 22.973765,12.3959622 C22.8585696,12.2165018 22.7177752,12.0915205 22.5513818,12.0210182 C22.3849884,11.9505159 22.1737968,11.9280834 21.917807,11.9537206 C21.5850202,11.9921764 21.2906319,11.9985857 21.0346421,11.9729485 C20.7786523,11.9473113 20.5738604,11.9024462 20.4202665,11.8383532 C20.0618808,11.7101672 19.8442894,11.6108231 19.7674925,11.5403208 C19.6906955,11.4698185 19.703495,11.3640651 19.8058909,11.2230605 C19.8826879,11.1333303 19.9082869,11.0500095 19.8826879,10.9730979 C19.8186904,10.8192747 19.7450934,10.7007027 19.6618967,10.6173818 C19.5787,10.5340609 19.4475052,10.460354 19.2683123,10.396261 C19.025122,10.3193494 18.8139304,10.3129401 18.6347375,10.3770331 C18.4555446,10.4411261 18.2571525,10.58854 18.0395612,10.8192747 C17.6299774,11.2422884 17.111598,11.6460742 16.484423,12.0306322 C15.8572479,12.4151901 15.1788749,12.735655 14.4493039,12.992027 C14.1933141,13.0689386 14.04292,13.1554641 13.9981218,13.2516036 C13.9533236,13.3477431 14.0525197,13.4727244 14.29571,13.6265475 C14.4109054,13.7034591 14.6124974,13.7419149 14.9004859,13.7419149 C15.1884745,13.7419149 15.4860627,13.7034591 15.7932505,13.6265475 C15.8956464,13.6009103 15.9660436,13.6137289 16.0044421,13.6650033 C16.0428405,13.7162777 16.0684395,13.7931893 16.081239,13.8957381 C16.0940385,13.9598311 16.1036381,14.0175148 16.1100379,14.0687892 C16.1164376,14.1200635 16.1260372,14.1713379 16.1388367,14.2226123 C16.1644357,14.3251611 16.2540321,14.4020727 16.407626,14.4533471 C16.5612199,14.5046215 16.7404128,14.5334633 16.9452047,14.5398726 C17.1499965,14.5462819 17.364388,14.5238494 17.5883791,14.472575 C17.8123702,14.4213006 18.0075624,14.344389 18.1739558,14.2418402 C18.3147502,14.15211 18.3915472,14.0751985 18.4043467,14.0111055 C18.4171462,13.9470125 18.3851474,13.9021474 18.3083505,13.8765102 C18.0011627,13.7995986 17.7739717,13.7130731 17.6267776,13.6169336 C17.4795834,13.5207941 17.3803874,13.4150407 17.3291894,13.2996733 C17.3035904,13.1971245 17.31319,13.110599 17.3579883,13.0400967 C17.4027865,12.9695944 17.5083823,12.8894782 17.6747757,12.799748 C17.892367,12.671562 18.0651601,12.5978551 18.1931551,12.5786272 C18.32115,12.5593993 18.4875434,12.5561947 18.6923352,12.5690133 C18.8331296,12.5818319 18.9771239,12.5946505 19.124318,12.607469 C19.2715122,12.6202876 19.4219062,12.6395155 19.5755001,12.6651527 C19.9722843,12.7164271 20.1866758,12.8382038 20.2186745,13.0304828 C20.2506733,13.2227617 20.0746803,13.4342686 19.6906955,13.6650033 L19.6216735,13.7074318 C19.3826086,13.8504492 19.0536299,14.0093575 18.6347375,14.1841565 C18.1739558,14.3764355 17.6779755,14.5623052 17.1467966,14.7417655 C16.6156178,14.9212259 16.0844389,15.084663 15.55326,15.2320769 C15.0220811,15.3794907 14.5644993,15.4852442 14.1805146,15.5493372 C13.9757227,15.5749744 13.8541275,15.6518859 13.8157291,15.7800719 C13.7773306,15.9082579 13.8349283,16.0492625 13.9885222,16.2030856 C14.1933141,16.4081832 14.4013058,16.5299599 14.6124974,16.5684157 Z M12.106997,22.3175566 C12.5549792,22.368831 12.8685667,22.2951241 13.0477596,22.0964358 C13.2269525,21.8977475 13.3101492,21.5997151 13.2973497,21.2023386 C13.2845502,20.8305993 13.2845502,20.4716786 13.2973497,20.1255764 C13.3101492,19.7794743 13.3037494,19.4397815 13.2781504,19.1064979 C13.2525515,18.657847 13.2781504,18.3662239 13.3549474,18.2316287 C13.4317443,18.0970334 13.5981377,18.0297358 13.8541275,18.0297358 C14.0845184,18.0297358 14.3245088,18.0137125 14.5740989,17.981666 C14.823689,17.9496195 15.1148774,17.8823219 15.4476642,17.7797731 C15.7676515,17.6900429 16.1356368,17.616336 16.5516203,17.5586523 C16.9676038,17.5009686 17.3867871,17.4625128 17.8091703,17.4432849 C18.2315535,17.424057 18.6251379,17.4176477 18.9899234,17.424057 C19.3547089,17.4304663 19.6458973,17.4528989 19.8634887,17.4913547 C19.9530851,17.5169919 20.0170826,17.5682663 20.055481,17.6451778 C20.0938795,17.7220894 20.1194785,17.8823219 20.132278,18.1258752 C20.1450775,18.3437914 20.1546771,18.5360704 20.1610768,18.7027121 C20.1674766,18.8693539 20.1642767,18.9847213 20.1514772,19.0488143 C20.1002792,19.5231024 19.9402856,19.9044556 19.6714963,20.1928741 C19.402707,20.4812925 19.1019189,20.6575482 18.7691322,20.7216412 C18.3083505,20.8113714 17.8315694,20.8370086 17.338789,20.7985528 C16.8460086,20.760097 16.3500283,20.6447296 15.8508482,20.4524507 C15.5948583,20.3499019 15.4252651,20.3466972 15.3420684,20.4428367 C15.2588717,20.5389762 15.3068698,20.696004 15.4860627,20.9139202 C15.7420525,21.2087479 16.0908386,21.4619152 16.5324211,21.6734221 C16.9740035,21.8849289 17.4539844,22.0323428 17.9723638,22.1156637 C18.4907432,22.1989846 19.0123225,22.2182125 19.5371016,22.1733474 C20.0618808,22.1284823 20.5418617,22.003501 20.9770444,21.7984034 C21.3610291,21.6061244 21.6362182,21.2824549 21.8026116,20.8273946 C21.969005,20.3723344 22.0010037,19.901251 21.8986078,19.4141443 C21.8730088,19.3115955 21.8538095,19.1770002 21.84101,19.0103585 C21.8282106,18.8437167 21.8090113,18.6642563 21.7834123,18.4719774 C21.7578134,18.1386938 21.7770126,17.9400056 21.84101,17.8759126 C21.9050075,17.8118196 22.0650011,17.8182289 22.320991,17.8951405 C22.4873844,17.9464149 22.6697771,17.9976893 22.8681692,18.0489637 C23.0665613,18.100238 23.2937523,18.1579217 23.5497421,18.2220147 C23.6905365,18.2604705 23.85373,18.2572659 24.0393227,18.2124008 C24.2249153,18.1675357 24.4105079,18.0874194 24.5961005,17.9720521 C24.7816932,17.8566847 24.9640859,17.7060662 25.1432788,17.5201965 C25.3224717,17.3343268 25.4696658,17.113206 25.5848612,16.8568341 C25.6744577,16.6773737 25.690457,16.565211 25.6328593,16.5203459 C25.5752616,16.4754808 25.3928689,16.446639 25.0856811,16.4338204 C24.5993004,16.4081832 24.1353188,16.3921599 23.6937364,16.3857506 C23.252154,16.3793413 22.8073716,16.382546 22.3593894,16.3953646 C22.1417981,16.3953646 21.9882042,16.3248623 21.8986078,16.1838577 C21.8090113,16.0428532 21.7770126,15.8505742 21.8026116,15.6070208 C21.8282106,15.4019233 21.7354142,15.2160536 21.5242226,15.0494119 C21.313031,14.8827701 20.9962436,14.7674027 20.5738604,14.7033097 C20.3562691,14.6648539 20.1834759,14.7289469 20.055481,14.8955887 C19.9274861,15.0622305 19.8762881,15.2352815 19.9018871,15.4147419 C19.9658846,15.7864812 19.9370857,16.0492625 19.8154906,16.2030856 C19.6938954,16.3569088 19.4731042,16.4402297 19.1531169,16.4530483 C18.8075306,16.4530483 18.5099425,16.4594576 18.2603524,16.4722762 C18.0107623,16.4850948 17.767572,16.4979134 17.5307814,16.510732 C17.2939908,16.5235506 17.0444007,16.5395738 16.7820111,16.5588017 C16.5196216,16.5780296 16.2028342,16.6004621 15.8316489,16.6260993 C15.3452683,16.6517365 14.9324847,16.6966016 14.5932982,16.7606946 C14.2541116,16.8247876 13.9949219,16.9081085 13.8157291,17.0106573 C13.6621352,17.113206 13.5309404,17.1388432 13.4221447,17.0875688 C13.313349,17.0362945 13.2589512,16.8824713 13.2589512,16.6260993 C13.2461517,15.7031603 13.2429518,14.966091 13.2493516,14.4148913 C13.2557513,13.8636916 13.2717507,13.5239988 13.2973497,13.3958128 C13.3485476,13.0112549 13.3837462,12.6843806 13.4029455,12.4151901 C13.4221447,12.1459995 13.4189448,11.9248787 13.3933459,11.7518277 C13.3677469,11.5787766 13.3293484,11.437772 13.2781504,11.328814 C13.2269525,11.2198559 13.162955,11.126921 13.0861581,11.0500095 C12.9069652,10.8705491 12.7501714,10.7583864 12.6157768,10.7135213 C12.4813821,10.6686562 12.3245883,10.6590422 12.1453955,10.6846794 C11.9278041,10.7103166 11.7582109,10.8224794 11.6366157,11.0211676 C11.5150205,11.2198559 11.4670224,11.4345674 11.4926214,11.6653021 C11.5566189,12.0626787 11.5982172,12.4280087 11.6174165,12.7612922 C11.6366157,13.0945758 11.6462153,13.3894035 11.6462153,13.6457754 C11.6590148,13.8124172 11.6654145,14.0655845 11.6654145,14.4052773 C11.6654145,14.7449702 11.6590148,15.139142 11.6462153,15.587793 C11.6462153,15.7928905 11.6078168,15.9563276 11.5310199,16.0781043 C11.4542229,16.199881 11.326228,16.3120437 11.1470351,16.4145925 C10.699053,16.6709644 10.2254718,16.8952899 9.72629163,17.0875688 C9.22711147,17.2798478 8.61913564,17.4785361 7.90236413,17.6836336 C7.68477278,17.7477266 7.51197965,17.808615 7.38398474,17.8662986 C7.25598982,17.9239823 7.16319351,17.99128 7.1055958,18.0681916 C7.04799809,18.1451031 7.01599936,18.2412426 7.00959962,18.35661 C7.00319987,18.4719774 7,18.6129819 7,18.7796237 C7.01279949,18.9975399 7.05759771,19.160977 7.13439466,19.2699351 C7.2111916,19.3788931 7.33918652,19.4654187 7.51837939,19.5295117 C7.63357481,19.580786 7.78716871,19.5904 7.97916108,19.5583535 C8.17115344,19.526307 8.43354301,19.4397815 8.76632979,19.2987769 C9.15031452,19.1321351 9.54389888,18.9238329 9.94708285,18.6738703 C10.3502668,18.4239076 10.7374514,18.1386938 11.1086367,17.8182289 C11.2750301,17.6772243 11.403025,17.6195406 11.4926214,17.6451778 C11.5822178,17.670815 11.6270161,17.8246382 11.6270161,18.1066473 C11.6142166,18.6450284 11.6078168,19.1994328 11.6078168,19.7698604 C11.6078168,20.3402879 11.5950173,20.8113714 11.5694184,21.1831107 C11.5566189,21.5548501 11.5886176,21.8304499 11.6654145,22.0099103 C11.7422115,22.1893706 11.8894056,22.2919194 12.106997,22.3175566 Z M10.9358435,15.1263234 C11.2174324,15.1647792 11.377426,15.1423467 11.4158245,15.0590258 C11.4542229,14.9757049 11.403025,14.8314957 11.2622306,14.6263981 C11.0830377,14.3572076 10.9198442,14.1040403 10.77265,13.8668962 C10.6254559,13.6297522 10.4238639,13.3317198 10.1678741,12.9727991 C9.9758817,12.6779713 9.72629163,12.5145342 9.41910384,12.4824877 C9.11191605,12.4504412 8.86232597,12.5241482 8.6703336,12.7036085 C8.49114072,12.8830689 8.39514454,13.05612 8.38234505,13.2227617 C8.36954556,13.3894035 8.43994276,13.6329568 8.59353665,13.9534218 C8.77272953,14.2995239 9.05431834,14.5655098 9.43830307,14.7513795 C9.82228781,14.9372491 10.321468,15.0622305 10.9358435,15.1263234 Z M17.7035745,19.6929488 C18.0043626,19.7249953 18.32115,19.6705162 18.6539367,19.5295117 C18.7947311,19.4654187 18.8651283,19.3917117 18.8651283,19.3083909 C18.8651283,19.22507 18.7947311,19.1385444 18.6539367,19.0488143 C18.5131423,18.9590841 18.3531487,18.8116702 18.1739558,18.6065726 C17.9947629,18.4014751 17.8603683,18.2220147 17.7707718,18.0681916 C17.7067744,17.9528242 17.6139781,17.85348 17.4923829,17.7701592 C17.3707877,17.6868383 17.2427928,17.6323592 17.1083982,17.606722 C16.9740035,17.5810848 16.8428087,17.5842895 16.7148138,17.616336 C16.5868189,17.6483825 16.4908227,17.7220894 16.4268253,17.8374568 C16.2348329,18.1707403 16.1740353,18.4399309 16.2444325,18.6450284 C16.3148297,18.850126 16.4908227,19.0616329 16.7724115,19.279549 C17.0923988,19.5231024 17.4027865,19.6609023 17.7035745,19.6929488 Z" id="将" fill="url(#linearGradient-5)" fill-rule="nonzero"></path>
    </g>
</svg>