<?xml version="1.0" encoding="UTF-8"?>
<svg width="128px" height="128px" viewBox="0 0 128 128" version="1.1" xmlns="http://www.w3.org/2000/svg" xmlns:xlink="http://www.w3.org/1999/xlink">
    <title>象棋128</title>
    <defs>
        <filter x="-15.6%" y="-15.6%" width="131.2%" height="131.2%" filterUnits="objectBoundingBox" id="filter-1">
            <feOffset dx="0" dy="1" in="SourceAlpha" result="shadowOffsetOuter1"></feOffset>
            <feGaussianBlur stdDeviation="4" in="shadowOffsetOuter1" result="shadowBlurOuter1"></feGaussianBlur>
            <feColorMatrix values="0 0 0 0 0   0 0 0 0 0   0 0 0 0 0  0 0 0 0.3 0" type="matrix" in="shadowBlurOuter1" result="shadowMatrixOuter1"></feColorMatrix>
            <feMerge>
                <feMergeNode in="shadowMatrixOuter1"></feMergeNode>
                <feMergeNode in="SourceGraphic"></feMergeNode>
            </feMerge>
        </filter>
        <linearGradient x1="50%" y1="3.67425276%" x2="50%" y2="99.2713341%" id="linearGradient-2">
            <stop stop-color="#64CEFC" offset="0%"></stop>
            <stop stop-color="#3C90DC" offset="100%"></stop>
        </linearGradient>
        <linearGradient x1="50%" y1="0%" x2="50%" y2="95.5474213%" id="linearGradient-3">
            <stop stop-color="#FFFFFF" stop-opacity="0.701115535" offset="0%"></stop>
            <stop stop-color="#FFFFFF" offset="100%"></stop>
        </linearGradient>
        <linearGradient x1="50%" y1="0%" x2="50%" y2="100%" id="linearGradient-4">
            <stop stop-color="#2FA5ED" offset="0%"></stop>
            <stop stop-color="#3063C9" offset="100%"></stop>
        </linearGradient>
        <linearGradient x1="50%" y1="3.20609566%" x2="50%" y2="100%" id="linearGradient-5">
            <stop stop-color="#3783F8" offset="0%"></stop>
            <stop stop-color="#001673" offset="100%"></stop>
        </linearGradient>
    </defs>
    <g id="象棋128" stroke="none" stroke-width="1" fill="none" fill-rule="evenodd">
        <g id="编组" filter="url(#filter-1)" transform="translate(8.000000, 8.000000)">
            <rect id="矩形" fill="url(#linearGradient-2)" x="0" y="0" width="112" height="112" rx="21.3333333"></rect>
            <path d="M112,68.6666667 L112,70 L102.666,70 L102.666,91.333 L111.989765,91.3338796 C111.976004,91.7818009 111.948435,92.2262462 111.907471,92.6668044 L102.666,92.666 L102.666568,108.307588 C102.233246,108.602918 101.78848,108.8827 101.333072,109.146131 L101.333,92.666 L80,92.666 L80,112 L78.6666667,112 L78.666,92.666 L57.333,92.666 L57.3333333,112 L56,112 L56,92.666 L34.666,92.666 L34.6666667,112 L33.3333333,112 L33.333,92.666 L12,92.666 L12.0002707,109.855511 C11.5465813,109.634434 11.1019007,109.397741 10.6669284,109.146131 L10.666,92.666 L0.0925293045,92.6668044 C0.0515646235,92.2262462 0.0239962158,91.7818009 0.0102353739,91.3338796 L10.666,91.333 L10.666,70 L0,70 L0,68.6666667 L112,68.6666667 Z M33.333,70 L12,70 L12,91.333 L33.333,91.333 L33.333,70 Z M56,70 L34.666,70 L34.666,91.333 L56,91.333 L56,70 Z M78.666,70 L57.333,70 L57.333,91.333 L78.666,91.333 L78.666,70 Z M101.333,70 L80,70 L80,91.333 L101.333,91.333 L101.333,70 Z M34.6666667,0 L34.666,19.999 L56,20 L56,0 L57.3333333,0 L57.333,20 L78.666,20 L78.6666667,0 L80,0 L80,20 L101.333,20 L101.333072,2.85386876 C101.78848,3.11729955 102.233246,3.39708154 102.666568,3.69241198 L102.666,20 L111.959038,20.0004419 C111.986212,20.441251 112,20.885682 112,21.3333333 L102.666,21.333 L102.666667,42.6666667 L112,42.6666667 L112,44 L0,44 L0,42.6666667 L10.6666667,42.6666667 L10.666,21.333 L0,21.3333333 C-5.48628189e-17,20.8853444 0.013808662,20.4405807 0.0410235712,19.9994446 L10.666,19.999 L10.6669284,2.85386876 C11.1019007,2.60225909 11.5465813,2.36556607 12.0002707,2.14448917 L12,19.999 L33.333,19.999 L33.3333333,0 L34.6666667,0 Z M101.333,21.333 L80,21.333 L80,42.6666667 L101.333333,42.6666667 L101.333,21.333 Z M78.666,21.333 L57.333,21.333 L57.3333333,42.6666667 L78.6666667,42.6666667 L78.666,21.333 Z M56,21.333 L34.666,21.333 L34.6666667,42.6666667 L56,42.6666667 L56,21.333 Z M33.333,21.333 L12,21.333 L12,42.6666667 L33.3333333,42.6666667 L33.333,21.333 Z" id="形状结合" fill-opacity="0.08" fill="#030042"></path>
            <circle id="椭圆形" stroke="url(#linearGradient-4)" stroke-width="4" fill="url(#linearGradient-3)" opacity="0.854814902" cx="56" cy="57.3333333" r="43.3333333"></circle>
        </g>
        <path d="M58.4499896,66.2736626 C59.294756,66.4274858 60.5875046,66.2992998 62.3282354,65.8891047 C64.324956,65.4789096 66.1808823,64.9533471 67.8960141,64.3124172 C69.6111459,63.6714873 71.4926711,62.7870041 73.5405897,61.6589675 C75.2301225,60.7873029 77.0476503,59.9540941 78.9931729,59.159341 C80.9386956,58.364588 82.7306244,57.7108395 84.3689592,57.1980956 C87.0312534,56.3777054 89.2327659,55.3522176 90.9734967,54.1216323 C91.997456,53.3525164 92.5478341,52.6218564 92.6246311,51.9296521 C92.701428,51.2374478 92.4582377,50.4555134 91.8950601,49.5838488 C91.4342784,48.8660073 90.8711008,48.366082 90.2055272,48.0840729 C89.5399537,47.8020637 88.6951873,47.7123335 87.671228,47.8148823 C86.3400809,47.9687055 85.1625277,47.9943427 84.1385684,47.8917939 C83.1146091,47.7892451 82.2954417,47.6097848 81.6810661,47.3534128 C80.2475231,46.8406689 79.3771577,46.4432924 79.0699699,46.1612833 C78.7627821,45.8792741 78.8139801,45.4562604 79.2235638,44.8922421 C79.5307516,44.5333214 79.6331475,44.2000378 79.5307516,43.8923915 C79.2747617,43.2770988 78.9803735,42.8028107 78.6475867,42.4695272 C78.3147999,42.1362437 77.7900208,41.8414159 77.0732493,41.585044 C76.1004879,41.2773976 75.2557215,41.2517604 74.53895,41.5081324 C73.8221785,41.7645043 73.02861,42.3541598 72.1582446,43.2770988 C70.5199098,44.9691537 68.4463922,46.584297 65.9376919,48.1225287 C63.4289916,49.6607604 60.7154995,50.9426201 57.7972155,51.9681079 C56.7732562,52.2757542 56.1716801,52.6218564 55.9924873,53.0064143 C55.8132944,53.3909722 56.2100786,53.8908975 57.1828399,54.5061902 C57.6436216,54.8138365 58.4499896,54.9676597 59.6019438,54.9676597 C60.753898,54.9676597 61.9442507,54.8138365 63.1730018,54.5061902 C63.5825855,54.4036414 63.8641743,54.4549158 64.0177682,54.6600133 C64.1713621,54.8651109 64.2737581,55.1727572 64.324956,55.5829524 C64.376154,55.8393243 64.4145525,56.0700591 64.4401514,56.2751566 C64.4657504,56.4802542 64.5041489,56.6853517 64.5553469,56.8904493 C64.6577428,57.3006444 65.0161286,57.6082908 65.6305041,57.8133883 C66.2448797,58.0184859 66.9616512,58.1338532 67.7808187,58.1594904 C68.5999861,58.1851276 69.457552,58.0953975 70.3535164,57.8902999 C71.2494808,57.6852023 72.0302497,57.377556 72.6958233,56.9673609 C73.2590009,56.6084402 73.5661887,56.3007938 73.6173866,56.0444219 C73.6685846,55.7880499 73.5405897,55.6085896 73.2334019,55.5060408 C72.0046507,55.1983944 71.0958869,54.8522923 70.5071103,54.4677344 C69.9183337,54.0831765 69.5215495,53.6601627 69.3167576,53.1986932 C69.2143617,52.7884981 69.2527601,52.442396 69.431953,52.1603868 C69.6111459,51.8783777 70.0335291,51.5579128 70.6991026,51.198992 C71.569468,50.6862481 72.2606406,50.3914204 72.7726202,50.3145088 C73.2845999,50.2375972 73.9501734,50.2247786 74.7693408,50.276053 C75.3325185,50.3273274 75.9084956,50.3786018 76.4972722,50.4298762 C77.0860488,50.4811506 77.6876248,50.5580622 78.3020004,50.660611 C79.8891373,50.8657085 80.7467032,51.3528152 80.8746981,52.1219311 C81.0026931,52.8910469 80.298721,53.7370743 78.7627821,54.6600133 L78.4866939,54.8297273 C77.5304344,55.401797 76.2145198,56.0374299 74.53895,56.7366261 C72.6958233,57.505742 70.7119021,58.2492206 68.5871866,58.9670621 C66.4624711,59.6849035 64.3377555,60.338652 62.21304,60.9283075 C60.0883244,61.517963 58.2579972,61.9409767 56.7220583,62.1973486 C55.9028908,62.2998974 55.4165102,62.6075437 55.2629163,63.1202876 C55.1093224,63.6330315 55.3397132,64.1970498 55.9540888,64.8123425 C56.7732562,65.6327327 57.6052231,66.1198394 58.4499896,66.2736626 Z M48.427988,89.2702264 C50.2199167,89.475324 51.4742669,89.1804962 52.1910384,88.3857432 C52.9078099,87.5909901 53.2405966,86.3988606 53.1893987,84.8093545 C53.1382007,83.3223972 53.1382007,81.8867143 53.1893987,80.5023058 C53.2405966,79.1178972 53.2149977,77.7591259 53.1126017,76.4259918 C53.0102058,74.6313881 53.1126017,73.4648958 53.4197895,72.9265147 C53.7269773,72.3881336 54.3925509,72.118943 55.4165102,72.118943 C56.3380735,72.118943 57.2980354,72.0548501 58.2963957,71.9266641 C59.294756,71.7984781 60.4595097,71.5292876 61.7906568,71.1190924 C63.0706059,70.7601717 64.5425474,70.465344 66.2064812,70.2346092 C67.8704151,70.0038745 69.5471484,69.8500513 71.2366813,69.7731397 C72.9262141,69.6962281 74.5005515,69.6705909 75.9596935,69.6962281 C77.4188355,69.7218653 78.5835892,69.8115955 79.4539546,69.9654187 C79.8123404,70.0679675 80.0683302,70.273065 80.2219241,70.5807113 C80.375518,70.8883577 80.4779139,71.5292876 80.5291119,72.503501 C80.5803099,73.3751656 80.6187083,74.1442814 80.6443073,74.8108485 C80.6699063,75.4774156 80.6571068,75.9388851 80.6059088,76.195257 C80.401117,78.0924094 79.7611424,79.6178225 78.6859852,80.7714963 C77.6108279,81.9251701 76.4076757,82.6301929 75.0765286,82.8865649 C73.2334019,83.2454856 71.3262777,83.3480344 69.3551561,83.1942112 C67.3840344,83.040388 65.4001133,82.5789185 63.4033927,81.8098027 C62.3794334,81.3996076 61.7010603,81.386789 61.3682736,81.7713469 C61.0354868,82.1559048 61.2274792,82.7840161 61.9442507,83.6556807 C62.96821,84.8349917 64.3633545,85.8476609 66.1296843,86.6936883 C67.8960141,87.5397157 69.8159378,88.1293712 71.8894553,88.4626548 C73.9629729,88.7959383 76.04929,88.8728499 78.1484065,88.6933895 C80.2475231,88.5139291 82.1674468,88.0140038 83.9081776,87.1936136 C85.4441165,86.4244978 86.5448728,85.1298194 87.2104463,83.3095786 C87.8760198,81.4893378 88.0040147,79.6050039 87.594431,77.6565771 C87.4920351,77.246382 87.4152382,76.7080009 87.3640402,76.0414339 C87.3128422,75.3748668 87.2360453,74.6570253 87.1336493,73.8879095 C87.0312534,72.5547754 87.1080504,71.7600223 87.3640402,71.5036504 C87.62003,71.2472784 88.2600046,71.2729156 89.2839639,71.5805619 C89.9495374,71.7856595 90.6791084,71.9907571 91.4726769,72.1958546 C92.2662453,72.4009522 93.1750092,72.6316869 94.1989685,72.8880589 C94.7621461,73.0418821 95.4149202,73.0290635 96.1572906,72.8496031 C96.8996611,72.6701427 97.6420316,72.3496778 98.3844021,71.8882083 C99.1267726,71.4267388 99.8563436,70.8242647 100.573115,70.080786 C101.289887,69.3373074 101.878663,68.4528242 102.339445,67.4273364 C102.697831,66.7094949 102.761828,66.260844 102.531437,66.0813837 C102.301046,65.9019233 101.571475,65.7865559 100.342724,65.7352815 C98.3972016,65.6327327 96.5412754,65.5686398 94.7749456,65.5430026 C93.0086158,65.5173654 91.2294865,65.530184 89.4375578,65.5814584 C88.5671924,65.5814584 87.9528168,65.2994492 87.594431,64.7354309 C87.2360453,64.1714126 87.1080504,63.4022968 87.2104463,62.4280834 C87.3128422,61.6076932 86.941657,60.8642145 86.0968906,60.1976474 C85.2521241,59.5310804 83.9849745,59.0696109 82.2954417,58.8132389 C81.4250763,58.6594157 80.7339037,58.9157877 80.2219241,59.5823548 C79.7099444,60.2489218 79.5051526,60.9411261 79.6075485,61.6589675 C79.8635383,63.1459248 79.7483429,64.1970498 79.2619623,64.8123425 C78.7755816,65.4276352 77.8924167,65.7609187 76.6124676,65.8121931 C75.2301225,65.8121931 74.0397698,65.8378303 73.0414095,65.8891047 C72.0430492,65.9403791 71.0702879,65.9916535 70.1231255,66.0429279 C69.1759632,66.0942022 68.1776029,66.1582952 67.1280446,66.2352068 C66.0784863,66.3121184 64.8113367,66.4018486 63.3265957,66.5043974 C61.3810731,66.6069461 59.7299387,66.7864065 58.3731926,67.0427785 C57.0164466,67.2991504 55.9796878,67.6324339 55.2629163,68.0426291 C54.6485407,68.4528242 54.1237615,68.555373 53.6885788,68.3502754 C53.2533961,68.1451778 53.0358048,67.5298852 53.0358048,66.5043974 C52.9846068,62.8126413 52.9718073,59.8643639 52.9974063,57.6595651 C53.0230053,55.4547664 53.0870028,54.0959951 53.1893987,53.5832512 C53.3941905,52.0450195 53.5349849,50.7375225 53.6117819,49.6607604 C53.6885788,48.5839982 53.6757793,47.6995149 53.5733834,47.0073107 C53.4709875,46.3151064 53.3173936,45.7510881 53.1126017,45.3152558 C52.9078099,44.8794235 52.6518201,44.5076842 52.3446323,44.2000378 C51.6278608,43.4821964 51.0006857,43.0335455 50.4631071,42.8540851 C49.9255284,42.6746248 49.2983534,42.636169 48.5815819,42.7387177 C47.7112164,42.8412665 47.0328434,43.2899174 46.5464627,44.0846705 C46.0600821,44.8794235 45.8680897,45.7382695 45.9704856,46.6612086 C46.2264755,48.2507146 46.3928689,49.7120347 46.4696658,51.0451689 C46.5464627,52.378303 46.5848612,53.557614 46.5848612,54.5831018 C46.6360592,55.2496688 46.6616582,56.262338 46.6616582,57.6211094 C46.6616582,58.9798807 46.6360592,60.5565682 46.5848612,62.3511718 C46.5848612,63.171562 46.4312673,63.8253105 46.1240795,64.3124172 C45.8168918,64.7995239 45.3049121,65.2481748 44.5881406,65.6583699 C42.7962118,66.6838577 40.9018871,67.5811596 38.9051665,68.3502754 C36.9084459,69.1193912 34.4765425,69.9141443 31.6094565,70.7345345 C30.7390911,70.9909065 30.0479186,71.2344598 29.5359389,71.4651946 C29.0239593,71.6959293 28.6527741,71.9651199 28.4223832,72.2727662 C28.1919924,72.5804125 28.0639975,72.9649705 28.0383985,73.42644 C28.0127995,73.8879095 28,74.4519278 28,75.1184948 C28.051198,75.9901595 28.2303908,76.6439079 28.5375786,77.0797402 C28.8447664,77.5155726 29.3567461,77.8616747 30.0735176,78.1180466 C30.5342993,78.3231442 31.1486748,78.3616 31.9166443,78.233414 C32.6846138,78.105228 33.7341721,77.7591259 35.0653191,77.1951076 C36.6012581,76.5285406 38.1755955,75.6953317 39.7883314,74.6954811 C41.4010673,73.6956305 42.9498057,72.5547754 44.4345467,71.2729156 C45.1001202,70.7088973 45.6120999,70.4781626 45.9704856,70.5807113 C46.3288714,70.6832601 46.5080643,71.2985528 46.5080643,72.4265894 C46.4568663,74.5801137 46.4312673,76.7977311 46.4312673,79.0794414 C46.4312673,81.3611518 46.3800694,83.2454856 46.2776734,84.7324429 C46.2264755,86.2194002 46.3544704,87.3217996 46.6616582,88.039641 C46.968846,88.7574825 47.5576226,89.1676776 48.427988,89.2702264 Z M43.7433742,60.5052938 C44.8697294,60.6591169 45.509704,60.5693868 45.6632979,60.2361032 C45.8168918,59.9028197 45.6120999,59.3259828 45.0489223,58.5055926 C44.3321508,57.4288304 43.6793767,56.4161612 43.0906001,55.467585 C42.5018235,54.5190088 41.6954556,53.3268792 40.6714963,51.8911963 C39.9035268,50.7118853 38.9051665,50.0581369 37.6764153,49.9299509 C36.4476642,49.8017649 35.4493039,50.0965927 34.6813344,50.8144341 C33.9645629,51.5322756 33.5805782,52.2244798 33.5293802,52.8910469 C33.4781822,53.557614 33.759771,54.5318274 34.3741466,55.8136871 C35.0909181,57.1980956 36.2172734,58.2620392 37.7532123,59.0055179 C39.2891512,59.7489965 41.2858719,60.2489218 43.7433742,60.5052938 Z M70.8142981,78.7717951 C72.0174502,78.8999811 73.2845999,78.6820649 74.615747,78.1180466 C75.1789246,77.8616747 75.4605134,77.5668469 75.4605134,77.2335634 C75.4605134,76.9002799 75.1789246,76.5541777 74.615747,76.195257 C74.0525693,75.8363363 73.4125948,75.2466808 72.6958233,74.4262906 C71.9790518,73.6059003 71.4414731,72.8880589 71.0830874,72.2727662 C70.8270976,71.8112967 70.4559123,71.4139202 69.9695316,71.0806366 C69.483151,70.7473531 68.9711713,70.529437 68.4335927,70.4268882 C67.8960141,70.3243394 67.3712349,70.337158 66.8592553,70.465344 C66.3472756,70.5935299 65.9632909,70.8883577 65.7073011,71.3498272 C64.9393316,72.6829613 64.6961413,73.7597235 64.9777301,74.5801137 C65.2593189,75.400504 65.9632909,76.2465314 67.0896461,77.118196 C68.3695952,78.0924094 69.6111459,78.6436091 70.8142981,78.7717951 Z" id="将" fill="url(#linearGradient-5)" fill-rule="nonzero"></path>
    </g>
</svg>